<?xml version="1.0" encoding="iso-8859-1"?>
<!-- Uploaded to: SVG Repo, www.svgrepo.com, Generator: SVG Repo Mixer Tools -->
<!DOCTYPE svg PUBLIC "-//W3C//DTD SVG 1.1//EN" "http://www.w3.org/Graphics/SVG/1.1/DTD/svg11.dtd">
<svg fill="#000000" height="800px" width="800px" version="1.1" id="Capa_1" xmlns="http://www.w3.org/2000/svg" xmlns:xlink="http://www.w3.org/1999/xlink" 
	 viewBox="0 0 276.396 276.396" xml:space="preserve">
<path d="M267.624,80.174l-65.4-65.4c-5.654-5.655-13.189-8.769-21.213-8.769c-8.025,0-15.56,3.113-21.214,8.769L33.642,140.928
	c-11.696,11.695-11.696,30.728,0,42.426l1.309,1.309l-13.278,20.635c-1.435,2.229-1.076,5.565,0.798,7.439l8.178,8.178
	L2.638,248.926c-2.133,2.133-3.017,4.581-2.489,6.895c0.527,2.313,2.386,4.136,5.232,5.133l24.698,8.651
	c1.491,0.522,3.16,0.787,4.962,0.787c4.736,0,9.677-1.879,12.585-4.788l13.855-13.855l8.177,8.177
	c1.071,1.071,2.631,1.686,4.28,1.686c1.164,0,2.257-0.308,3.16-0.889l20.635-13.278l1.309,1.309
	c5.654,5.655,13.188,8.769,21.213,8.769c8.025,0,15.56-3.115,21.213-8.769l126.154-126.153
	C279.321,110.903,279.321,91.871,267.624,80.174z M177.751,170.056l-65.406-65.405l68.665-68.664l65.4,65.401L177.751,170.056z"/>
</svg>