<?xml version="1.0" ?><!-- Uploaded to: SVG Repo, www.svgrepo.com, Generator: SVG Repo Mixer Tools -->
<svg fill="#000000" width="800px" height="800px" viewBox="0 0 64 64" xmlns="http://www.w3.org/2000/svg"><title/><path d="M30.8,53.06a146.19,146.19,0,0,1-15.94-.83A13,13,0,0,1,3.39,40.62a83.16,83.16,0,0,1,.12-17.28A13.07,13.07,0,0,1,15.23,11.91a160.72,160.72,0,0,1,33.6,0A13.07,13.07,0,0,1,60.6,23.64a82.79,82.79,0,0,1-.07,16.95A12.85,12.85,0,0,1,49,52.24h0C42.42,52.79,36.41,53.06,30.8,53.06Zm1.29-40a164.28,164.28,0,0,0-16.65.85A11.06,11.06,0,0,0,5.5,23.56a81.11,81.11,0,0,0-.12,16.87,11,11,0,0,0,9.69,9.82,175.5,175.5,0,0,0,33.79,0h0a10.85,10.85,0,0,0,9.67-9.87,80.8,80.8,0,0,0,.07-16.54,11.09,11.09,0,0,0-10-9.91A153,153,0,0,0,32.09,13Z"/><path d="M26,41.5a1,1,0,0,1-1-1v-17a1,1,0,0,1,1.54-.84l14,9a1,1,0,0,1,0,1.71l-14,8A1,1,0,0,1,26,41.5Zm1-16.17V38.78l11.07-6.33Z"/></svg>